:SAMPLES-PER-SECOND 30
:FULLY-SPECIFIED
:DEGREES
145
root  -52.7036 40.3573 21.472 -5.59422 -72.4454 -5.84023
RightUpLeg  1.30036 -7.81771 -0.0766116
RightLeg  21.7055 7.14265 3.10753
RightFoot  -8.6781 0.0379025 -4.14553
RightToes  0.00048216 0.542163 -0.142577
Spine  8.27888 0.972316 11.2176
Spine1  12.336 2.10019 -0.0958762
HEad  -9.20622 -28.4912 7.08491
LeftShoulder1  9.54018 -15.8426 -42.8627
LeftArm  -4.82718 -31.7196 -30.7616
LeftForeArm  32.0032 -27.5796 -4.11558
LeftHand  -0.25398 0.0180481 5.50724
RightShoulder  4.85984 10.4553 28.828
RightArm  28.9718 50.2161 64.9266
RightForeArm  -0.723231 21.4442 5.62125
RightHand  -0.792134 0.825307 -14.9012
LeftUpLeg  -7.53558 -4.37196 4.11745
LeftLeg  11.454 -14.2125 -2.4787
LeftFoot  6.71641 0.628804 -4.20605
LeftToes  1.06245e-005 4.65855e-005 -8.18504e-006
146
root  -53.1865 40.4316 21.9356 -6.66188 -73.9627 -4.5721
RightUpLeg  2.08168 -5.64577 -0.518009
RightLeg  21.4513 6.60177 2.64628
RightFoot  -9.25477 0.00253198 -3.57662
RightToes  0.00048216 0.542163 -0.142577
Spine  7.50537 1.09067 9.49407
Spine1  12.427 1.93124 0.254809
HEad  -8.75196 -31.8412 8.86233
LeftShoulder1  9.68294 -15.7529 -43.7591
LeftArm  -8.60295 -30.0877 -29.7341
LeftForeArm  36.2414 -35.7572 -5.93993
LeftHand  -0.25398 0.0180481 5.50724
RightShoulder  4.61254 10.0087 28.1329
RightArm  34.3215 51.8132 71.8007
RightForeArm  1.0581 27.8535 5.84332
RightHand  -0.754045 0.618982 -14.6174
LeftUpLeg  -6.54925 -3.74136 3.24095
LeftLeg  11.6179 -12.5313 -2.09521
LeftFoot  5.90916 0.390607 -2.81631
LeftToes  1.06245e-005 4.65855e-005 -8.18504e-006
147
root  -53.6061 40.5216 22.3955 -7.3745 -74.6514 -3.09167
RightUpLeg  2.11343 -4.67911 -1.26571
RightLeg  21.3248 6.40718 2.49549
RightFoot  -9.40943 -0.0127871 -3.02165
RightToes  0.00048216 0.542163 -0.142577
Spine  6.54454 0.642999 7.66311
Spine1  12.2739 1.19188 0.540627
HEad  -9.2139 -34.4671 11.239
LeftShoulder1  9.7894 -15.6785 -44.446
LeftArm  -11.4702 -27.2136 -28.7401
LeftForeArm  40.3905 -44.1045 -8.11103
LeftHand  -0.25398 0.0180481 5.50724
RightShoulder  4.58838 9.82536 28.4259
RightArm  35.6445 51.3847 76.568
RightForeArm  7.5788 35.8996 7.69424
RightHand  -0.660059 0.138955 -13.8855
LeftUpLeg  -6.54167 -3.3316 2.3721
LeftLeg  11.879 -11.3113 -1.99331
LeftFoot  5.56862 0.268319 -2.03524
LeftToes  1.06245e-005 4.65855e-005 -8.18504e-006
148
root  -53.9546 40.6269 22.8556 -7.56311 -75.6703 -2.11197
RightUpLeg  1.98975 -4.02426 -2.01358
RightLeg  21.0613 6.91257 2.62567
RightFoot  -9.1525 -0.0169326 -2.36323
RightToes  0.00048216 0.542163 -0.142577
Spine  5.86792 0.255484 6.70596
Spine1  12.0902 0.78466 0.200071
HEad  -10.5463 -36.7447 14.0615
LeftShoulder1  10.0421 -15.9101 -45.0726
LeftArm  -13.2732 -23.4087 -27.9886
LeftForeArm  44.5969 -51.2214 -10.4848
LeftHand  -0.25398 0.0180481 5.50724
RightShoulder  4.59813 9.81992 28.5166
RightArm  35.1575 48.9874 78.6119
RightForeArm  14.9989 45.7449 10.4818
RightHand  -0.642285 0.22561 -13.3081
LeftUpLeg  -6.37986 -2.28331 1.70812
LeftLeg  11.6519 -11.1545 -2.02935
LeftFoot  5.62004 0.0941086 -0.860561
LeftToes  1.06245e-005 4.65855e-005 -8.18504e-006
149
root  -54.2565 40.753 23.308 -8.37938 -77.7504 -0.666168
RightUpLeg  2.13412 -2.83597 -2.78513
RightLeg  20.196 7.97455 2.85322
RightFoot  -8.74736 -0.0233337 -1.58556
RightToes  0.00048216 0.542163 -0.142577
Spine  5.5439 0.396736 6.19919
Spine1  11.836 1.00897 -0.380503
HEad  -11.799 -38.3984 16.35
LeftShoulder1  10.4116 -16.2015 -46.0808
LeftArm  -14.1582 -18.8989 -27.4728
LeftForeArm  48.716 -56.3865 -12.6768
LeftHand  -0.25398 0.0180481 5.50724
RightShoulder  4.60214 9.98185 28.1189
RightArm  33.8072 45.3323 78.335
RightForeArm  23.1323 55.886 14.755
RightHand  -0.578566 -0.137358 -12.7832
LeftUpLeg  -5.50317 -0.166965 1.23289
LeftLeg  10.5009 -11.0491 -2.00818
LeftFoot  5.59212 -0.0826792 0.327757
LeftToes  1.06245e-005 4.65855e-005 -8.18504e-006
150
root  -54.5252 40.8755 23.7379 -11.0672 -80.3085 2.73434
RightUpLeg  2.25044 -1.32211 -3.71313
RightLeg  18.9145 9.216 2.99283
RightFoot  -8.45332 -0.0336883 -0.930916
RightToes  0.00048216 0.542163 -0.142577
Spine  5.17572 0.667687 5.25774
Spine1  11.7815 1.30788 -0.886299
HEad  -12.9362 -38.7591 17.8478
LeftShoulder1  10.4478 -16.0373 -46.6459
LeftArm  -14.7707 -14.2937 -27.487
LeftForeArm  51.8173 -59.2316 -14.1102
LeftHand  -0.25398 0.0180481 5.50724
RightShoulder  4.87044 10.3631 29.1379
RightArm  33.5799 41.4544 75.9916
RightForeArm  31.5633 64.8269 21.227
RightHand  -0.488028 -1.06424 -12.9628
LeftUpLeg  -4.45418 1.63812 0.837376
LeftLeg  8.77205 -9.88367 -2.12062
LeftFoot  5.48157 -0.168876 0.916544
LeftToes  1.06245e-005 4.65855e-005 -8.18504e-006
151
root  -54.7526 40.9659 24.1398 -16.5738 -82.6324 9.11671
RightUpLeg  2.05746 0.0417312 -4.74764
RightLeg  17.691 10.3952 2.98921
RightFoot  -8.40533 -0.043772 -0.512703
RightToes  0.00048216 0.542163 -0.142577
Spine  4.74566 0.90424 3.69576
Spine1  11.6127 1.32818 -0.55334
HEad  -13.9173 -38.6509 18.4177
LeftShoulder1  10.5314 -15.7597 -47.7197
LeftArm  -15.2112 -9.91935 -27.1942
LeftForeArm  52.3711 -59.2509 -14.0945
LeftHand  -0.25398 0.0180481 5.50724
RightShoulder  5.25075 10.8228 30.6932
RightArm  33.8161 37.2432 71.9221
RightForeArm  41.0688 71.4251 30.2045
RightHand  -0.57071 -0.772992 -14.2048
LeftUpLeg  -3.74186 2.26215 0.389421
LeftLeg  7.07645 -7.8754 -2.51378
LeftFoot  5.4674 -0.224471 1.29417
LeftToes  1.06245e-005 4.65855e-005 -8.18504e-006
152
root  -54.9244 41.0219 24.518 -26.0912 -84.6714 19.4409
RightUpLeg  1.78261 1.01926 -5.68795
RightLeg  16.5407 11.4123 2.80733
RightFoot  -8.60813 -0.0556836 -0.107456
RightToes  0.00048216 0.542163 -0.142577
Spine  4.54482 1.04203 2.15575
Spine1  11.4395 1.22839 -0.0242522
HEad  -15.2878 -38.234 18.9357
LeftShoulder1  10.6736 -15.5885 -48.8097
LeftArm  -15.3377 -5.96145 -26.6517
LeftForeArm  50.0415 -56.1418 -12.4733
LeftHand  -0.25398 0.0180481 5.50724
RightShoulder  5.61274 11.1227 32.4301
RightArm  34.0737 32.7654 66.6349
RightForeArm  51.3395 75.1778 39.3755
RightHand  -0.792112 0.782492 -15.0053
LeftUpLeg  -3.26699 2.37946 -0.0271196
LeftLeg  5.65434 -5.75579 -3.03891
LeftFoot  5.40767 -0.299116 1.80948
LeftToes  1.06245e-005 4.65855e-005 -8.18504e-006
153
root  -55.0374 41.0449 24.8773 -44.8369 -86.4656 38.8567
RightUpLeg  1.47216 1.67247 -6.39975
RightLeg  15.4618 12.0735 2.43857
RightFoot  -8.98042 -0.0695386 0.42286
RightToes  0.00048216 0.542163 -0.142577
Spine  4.69132 1.11158 0.959502
Spine1  11.266 1.15355 0.279801
HEad  -16.9708 -37.4383 19.7682
LeftShoulder1  10.7319 -15.4931 -49.3245
LeftArm  -14.7795 -2.50782 -26.264
LeftForeArm  45.8606 -49.9397 -9.88844
LeftHand  -0.25398 0.0180481 5.50724
RightShoulder  5.93665 11.2672 34.2358
RightArm  34.0557 28.1867 60.7297
RightForeArm  57.0107 76.2618 42.8039
RightHand  -0.804972 1.25016 -14.1449
LeftUpLeg  -3.03582 2.58025 -0.276739
LeftLeg  4.71094 -3.64278 -3.55917
LeftFoot  5.02799 -0.327502 2.06352
LeftToes  1.06245e-005 4.65855e-005 -8.18504e-006
154
root  -55.0916 41.0382 25.2182 -80.9695 -87.4683 75.6809
RightUpLeg  0.768664 2.50582 -6.90187
RightLeg  14.8243 12.2528 2.04483
RightFoot  -9.34976 -0.0795077 0.923532
RightToes  0.00048216 0.542163 -0.142577
Spine  4.9821 1.04787 0.0420444
Spine1  11.1002 1.04915 0.280253
HEad  -18.447 -36.1076 20.4173
LeftShoulder1  10.5556 -15.3171 -48.9679
LeftArm  -12.9665 -0.133331 -26.4016
LeftForeArm  40.7137 -40.5097 -6.94435
LeftHand  -0.25398 0.0180481 5.50724
RightShoulder  6.27555 11.3691 36.2058
RightArm  33.7238 23.7269 54.7962
RightForeArm  52.7395 74.5822 36.7771
RightHand  -0.588724 0.160471 -12.3471
LeftUpLeg  -3.28655 2.83997 -0.432213
LeftLeg  4.39221 -1.6401 -4.00117
LeftFoot  4.47292 -0.294094 1.92184
LeftToes  1.06245e-005 4.65855e-005 -8.18504e-006
155
root  -55.0909 41.0216 25.5394 -122.931 -87.044 118.33
RightUpLeg  -0.346496 3.98035 -7.33909
RightLeg  14.7813 12.2388 1.87353
RightFoot  -9.58876 -0.086485 1.40296
RightToes  0.00048216 0.542163 -0.142577
Spine  5.44712 0.937878 -0.747489
Spine1  10.7438 0.885146 0.349438
HEad  -19.4585 -34.5623 20.376
LeftShoulder1  10.5145 -15.1985 -49.087
LeftArm  -9.47139 0.807649 -26.1076
LeftForeArm  34.7218 -27.7397 -4.48367
LeftHand  -0.25398 0.0180481 5.50724
RightShoulder  6.45876 11.4054 37.3001
RightArm  32.8279 19.4651 50.1755
RightForeArm  41.9525 68.5552 24.9562
RightHand  -0.494015 -0.16205 -11.019
LeftUpLeg  -3.82417 3.01611 -0.60554
LeftLeg  4.36351 0.0903829 -4.34357
LeftFoot  4.12432 -0.28559 1.9195
LeftToes  1.06245e-005 4.65855e-005 -8.18504e-006
